<?xml version="1.0" standalone="no"?>
<!DOCTYPE svg PUBLIC "-//W3C//DTD SVG 20010904//EN"
 "http://www.w3.org/TR/2001/REC-SVG-20010904/DTD/svg10.dtd">
<svg version="1.0" xmlns="http://www.w3.org/2000/svg"
 width="349.000000pt" height="349.000000pt" viewBox="0 0 349.000000 349.000000"
 preserveAspectRatio="xMidYMid meet">
<metadata>
Created by potrace 1.11, written by Peter Selinger 2001-2013
</metadata>
<g transform="translate(0.000000,349.000000) scale(0.100000,-0.100000)"
fill="#000000" stroke="none">
<path d="M2170 3296 c-30 -8 -100 -25 -155 -39 -96 -25 -135 -31 -305 -42
-164 -10 -303 -91 -395 -231 -71 -107 -81 -160 -90 -474 -4 -107 -7 -195 -8
-195 -1 -1 -45 -30 -97 -64 -52 -35 -100 -64 -105 -64 -6 0 -55 29 -110 65
-150 97 -187 120 -189 116 -25 -31 -131 -331 -151 -422 -2 -12 -7 -32 -10 -46
-28 -119 -43 -278 -40 -440 2 -96 6 -188 9 -205 11 -51 16 -79 22 -110 8 -47
45 -179 54 -190 4 -5 13 -28 20 -50 59 -183 250 -418 435 -537 284 -181 694
-234 1054 -136 41 11 82 23 90 28 9 4 52 24 96 45 269 126 478 362 585 660 68
189 84 292 85 515 0 102 -4 210 -8 240 -11 74 -36 198 -47 235 -45 147 -73
225 -83 238 -10 12 -148 54 -240 72 -9 2 -21 6 -25 9 -38 23 -65 13 -236 -90
-172 -103 -199 -116 -191 -91 4 13 9 46 21 142 10 87 11 98 13 123 0 13 4 21
9 18 4 -2 28 -1 52 4 25 5 72 11 105 15 60 6 72 7 155 20 107 17 180 91 193
196 9 65 -6 82 -74 85 -59 3 -172 10 -314 20 -49 4 -106 8 -125 9 -19 1 -37 3
-39 4 -5 1 87 61 94 61 2 0 24 13 47 29 24 16 97 62 163 102 207 126 216 137
172 211 -68 115 -163 170 -297 175 -47 1 -110 -4 -140 -11z m-399 -326 c30
-17 23 -54 -16 -89 -37 -33 -73 -39 -119 -21 -38 14 -34 51 9 89 38 33 88 41
126 21z m-777 -1249 c82 -94 152 -171 156 -171 8 0 28 17 150 129 52 48 115
106 140 128 l45 41 91 -81 c50 -45 137 -124 193 -175 63 -57 106 -90 114 -86
6 4 48 35 92 69 44 34 119 92 168 128 l87 66 84 -48 83 -48 67 41 c36 22 99
62 139 88 104 67 101 67 114 11 26 -107 35 -190 35 -318 0 -128 -5 -174 -32
-299 -80 -367 -309 -635 -635 -741 -129 -42 -153 -46 -320 -50 -252 -5 -452
49 -618 169 -233 167 -363 410 -413 771 -13 90 -7 297 11 386 3 13 7 38 9 54
3 17 12 61 22 99 l17 70 26 -31 c14 -17 93 -107 175 -202z"/>
<path d="M2945 3065 c-38 -14 -115 -83 -115 -104 0 -6 17 -2 38 8 50 26 90 31
132 15 20 -7 27 -13 16 -13 -32 -2 -90 -41 -116 -78 -13 -19 -34 -42 -47 -50
-31 -21 -29 -32 13 -77 60 -64 141 -83 217 -51 45 19 54 33 21 33 -40 0 -68
33 -59 71 9 41 30 51 102 48 94 -3 168 50 189 138 l7 29 -28 -18 c-43 -29
-104 -22 -191 19 -88 42 -125 49 -179 30z"/>
</g>
</svg>
